<mxfile host="app.diagrams.net" modified="2023-11-03T20:55:48.797Z" agent="Mozilla/5.0 (Windows NT 10.0; Win64; x64) AppleWebKit/537.36 (KHTML, like Gecko) Chrome/118.0.0.0 Safari/537.36" etag="0_wfq71kx2DlJR29JoGr" version="22.0.8" type="github">
  <diagram name="Página-1" id="R1tW4xnkmmYv7JkuXug6">
    <mxGraphModel dx="1103" dy="647" grid="1" gridSize="10" guides="1" tooltips="1" connect="1" arrows="1" fold="1" page="1" pageScale="1" pageWidth="1169" pageHeight="827" math="0" shadow="0">
      <root>
        <mxCell id="0" />
        <mxCell id="1" parent="0" />
        <mxCell id="L9QGzmagOvYEM6VZhwHZ-1" value="AGENCIA" style="whiteSpace=wrap;html=1;align=center;rounded=0;labelBackgroundColor=none;fillColor=#56517E;strokeColor=#EEEEEE;fontColor=#FFFFFF;" vertex="1" parent="1">
          <mxGeometry x="930" y="280" width="100" height="40" as="geometry" />
        </mxCell>
        <mxCell id="L9QGzmagOvYEM6VZhwHZ-2" value="CLIENTE" style="whiteSpace=wrap;html=1;align=center;rounded=0;labelBackgroundColor=none;fillColor=#56517E;strokeColor=#EEEEEE;fontColor=#FFFFFF;" vertex="1" parent="1">
          <mxGeometry x="545" y="280" width="100" height="40" as="geometry" />
        </mxCell>
        <mxCell id="L9QGzmagOvYEM6VZhwHZ-3" value="CARRO" style="whiteSpace=wrap;html=1;align=center;rounded=0;labelBackgroundColor=none;fillColor=#56517E;strokeColor=#EEEEEE;fontColor=#FFFFFF;" vertex="1" parent="1">
          <mxGeometry x="170" y="280" width="100" height="40" as="geometry" />
        </mxCell>
        <mxCell id="L9QGzmagOvYEM6VZhwHZ-6" value="ALUGAR" style="shape=ext;margin=3;double=1;whiteSpace=wrap;html=1;align=center;rounded=0;labelBackgroundColor=none;fillColor=#56517E;strokeColor=#EEEEEE;fontColor=#FFFFFF;" vertex="1" parent="1">
          <mxGeometry x="320" y="400" width="100" height="40" as="geometry" />
        </mxCell>
        <mxCell id="L9QGzmagOvYEM6VZhwHZ-14" style="edgeStyle=none;rounded=0;orthogonalLoop=1;jettySize=auto;html=1;entryX=0;entryY=0;entryDx=0;entryDy=0;strokeColor=#182E3E;fontColor=default;labelBackgroundColor=none;" edge="1" parent="1" source="L9QGzmagOvYEM6VZhwHZ-7" target="L9QGzmagOvYEM6VZhwHZ-2">
          <mxGeometry relative="1" as="geometry" />
        </mxCell>
        <mxCell id="L9QGzmagOvYEM6VZhwHZ-7" value="nome" style="ellipse;whiteSpace=wrap;html=1;align=center;strokeColor=#EEEEEE;fontColor=#FFFFFF;fillColor=#56517E;labelBackgroundColor=none;" vertex="1" parent="1">
          <mxGeometry x="420" y="220" width="100" height="40" as="geometry" />
        </mxCell>
        <mxCell id="L9QGzmagOvYEM6VZhwHZ-13" style="edgeStyle=none;rounded=0;orthogonalLoop=1;jettySize=auto;html=1;entryX=0.25;entryY=0;entryDx=0;entryDy=0;strokeColor=#182E3E;fontColor=default;labelBackgroundColor=none;" edge="1" parent="1" source="L9QGzmagOvYEM6VZhwHZ-8" target="L9QGzmagOvYEM6VZhwHZ-2">
          <mxGeometry relative="1" as="geometry" />
        </mxCell>
        <mxCell id="L9QGzmagOvYEM6VZhwHZ-8" value="cartao" style="ellipse;whiteSpace=wrap;html=1;align=center;strokeColor=#EEEEEE;fontColor=#FFFFFF;fillColor=#56517E;labelBackgroundColor=none;" vertex="1" parent="1">
          <mxGeometry x="480" y="170" width="100" height="40" as="geometry" />
        </mxCell>
        <mxCell id="L9QGzmagOvYEM6VZhwHZ-12" style="edgeStyle=none;rounded=0;orthogonalLoop=1;jettySize=auto;html=1;entryX=0.75;entryY=0;entryDx=0;entryDy=0;strokeColor=#182E3E;fontColor=default;labelBackgroundColor=none;" edge="1" parent="1" target="L9QGzmagOvYEM6VZhwHZ-2">
          <mxGeometry relative="1" as="geometry">
            <mxPoint x="651.1984435717295" y="209.68769201060672" as="sourcePoint" />
          </mxGeometry>
        </mxCell>
        <mxCell id="L9QGzmagOvYEM6VZhwHZ-11" style="edgeStyle=none;rounded=0;orthogonalLoop=1;jettySize=auto;html=1;entryX=1;entryY=0;entryDx=0;entryDy=0;strokeColor=#182E3E;fontColor=default;labelBackgroundColor=none;" edge="1" parent="1" source="L9QGzmagOvYEM6VZhwHZ-10" target="L9QGzmagOvYEM6VZhwHZ-2">
          <mxGeometry relative="1" as="geometry" />
        </mxCell>
        <mxCell id="L9QGzmagOvYEM6VZhwHZ-10" value="cnh" style="ellipse;whiteSpace=wrap;html=1;align=center;strokeColor=#EEEEEE;fontColor=#FFFFFF;fillColor=#56517E;labelBackgroundColor=none;" vertex="1" parent="1">
          <mxGeometry x="670" y="220" width="100" height="40" as="geometry" />
        </mxCell>
        <mxCell id="L9QGzmagOvYEM6VZhwHZ-16" value="telefone" style="ellipse;shape=doubleEllipse;margin=3;whiteSpace=wrap;html=1;align=center;strokeColor=#EEEEEE;fontColor=#FFFFFF;fillColor=#56517E;" vertex="1" parent="1">
          <mxGeometry x="600" y="170" width="100" height="40" as="geometry" />
        </mxCell>
        <mxCell id="L9QGzmagOvYEM6VZhwHZ-22" style="edgeStyle=none;rounded=0;orthogonalLoop=1;jettySize=auto;html=1;entryX=0.5;entryY=0;entryDx=0;entryDy=0;strokeColor=#182E3E;" edge="1" parent="1" source="L9QGzmagOvYEM6VZhwHZ-17" target="L9QGzmagOvYEM6VZhwHZ-3">
          <mxGeometry relative="1" as="geometry" />
        </mxCell>
        <mxCell id="L9QGzmagOvYEM6VZhwHZ-17" value="placa" style="ellipse;whiteSpace=wrap;html=1;align=center;strokeColor=#EEEEEE;fontColor=#FFFFFF;fillColor=#56517E;labelBackgroundColor=none;fontStyle=4" vertex="1" parent="1">
          <mxGeometry x="170" y="200" width="100" height="40" as="geometry" />
        </mxCell>
        <mxCell id="L9QGzmagOvYEM6VZhwHZ-21" style="edgeStyle=none;rounded=0;orthogonalLoop=1;jettySize=auto;html=1;entryX=1;entryY=0;entryDx=0;entryDy=0;strokeColor=#182E3E;" edge="1" parent="1" source="L9QGzmagOvYEM6VZhwHZ-18" target="L9QGzmagOvYEM6VZhwHZ-3">
          <mxGeometry relative="1" as="geometry" />
        </mxCell>
        <mxCell id="L9QGzmagOvYEM6VZhwHZ-18" value="modelo" style="ellipse;whiteSpace=wrap;html=1;align=center;strokeColor=#EEEEEE;fontColor=#FFFFFF;fillColor=#56517E;labelBackgroundColor=none;" vertex="1" parent="1">
          <mxGeometry x="280" y="220" width="100" height="40" as="geometry" />
        </mxCell>
        <mxCell id="L9QGzmagOvYEM6VZhwHZ-23" style="edgeStyle=none;rounded=0;orthogonalLoop=1;jettySize=auto;html=1;entryX=0;entryY=0;entryDx=0;entryDy=0;strokeColor=#182E3E;" edge="1" parent="1" source="L9QGzmagOvYEM6VZhwHZ-19" target="L9QGzmagOvYEM6VZhwHZ-3">
          <mxGeometry relative="1" as="geometry" />
        </mxCell>
        <mxCell id="L9QGzmagOvYEM6VZhwHZ-19" value="ano" style="ellipse;whiteSpace=wrap;html=1;align=center;strokeColor=#EEEEEE;fontColor=#FFFFFF;fillColor=#56517E;labelBackgroundColor=none;" vertex="1" parent="1">
          <mxGeometry x="60" y="220" width="100" height="40" as="geometry" />
        </mxCell>
        <mxCell id="L9QGzmagOvYEM6VZhwHZ-30" style="edgeStyle=none;rounded=0;orthogonalLoop=1;jettySize=auto;html=1;entryX=0;entryY=0;entryDx=0;entryDy=0;strokeColor=#182E3E;" edge="1" parent="1" source="L9QGzmagOvYEM6VZhwHZ-24" target="L9QGzmagOvYEM6VZhwHZ-1">
          <mxGeometry relative="1" as="geometry" />
        </mxCell>
        <mxCell id="L9QGzmagOvYEM6VZhwHZ-24" value="numero-agencia" style="ellipse;whiteSpace=wrap;html=1;align=center;fontStyle=4;strokeColor=#EEEEEE;fontColor=#FFFFFF;fillColor=#56517E;" vertex="1" parent="1">
          <mxGeometry x="830" y="220" width="100" height="40" as="geometry" />
        </mxCell>
        <mxCell id="L9QGzmagOvYEM6VZhwHZ-29" style="edgeStyle=none;rounded=0;orthogonalLoop=1;jettySize=auto;html=1;entryX=0.5;entryY=0;entryDx=0;entryDy=0;strokeColor=#182E3E;" edge="1" parent="1" source="L9QGzmagOvYEM6VZhwHZ-25" target="L9QGzmagOvYEM6VZhwHZ-1">
          <mxGeometry relative="1" as="geometry" />
        </mxCell>
        <mxCell id="L9QGzmagOvYEM6VZhwHZ-25" value="endereço" style="ellipse;whiteSpace=wrap;html=1;align=center;strokeColor=#EEEEEE;fontColor=#FFFFFF;fillColor=#56517E;" vertex="1" parent="1">
          <mxGeometry x="930" y="190" width="100" height="40" as="geometry" />
        </mxCell>
        <mxCell id="L9QGzmagOvYEM6VZhwHZ-28" style="edgeStyle=none;rounded=0;orthogonalLoop=1;jettySize=auto;html=1;entryX=1;entryY=0;entryDx=0;entryDy=0;strokeColor=#182E3E;" edge="1" parent="1" source="L9QGzmagOvYEM6VZhwHZ-27" target="L9QGzmagOvYEM6VZhwHZ-1">
          <mxGeometry relative="1" as="geometry" />
        </mxCell>
        <mxCell id="L9QGzmagOvYEM6VZhwHZ-27" value="contato" style="ellipse;shape=doubleEllipse;margin=3;whiteSpace=wrap;html=1;align=center;strokeColor=#EEEEEE;fontColor=#FFFFFF;fillColor=#56517E;" vertex="1" parent="1">
          <mxGeometry x="1020" y="220" width="100" height="40" as="geometry" />
        </mxCell>
        <mxCell id="L9QGzmagOvYEM6VZhwHZ-38" style="edgeStyle=none;rounded=0;orthogonalLoop=1;jettySize=auto;html=1;entryX=1;entryY=0;entryDx=0;entryDy=0;strokeColor=#182E3E;" edge="1" parent="1" source="L9QGzmagOvYEM6VZhwHZ-31" target="L9QGzmagOvYEM6VZhwHZ-25">
          <mxGeometry relative="1" as="geometry" />
        </mxCell>
        <mxCell id="L9QGzmagOvYEM6VZhwHZ-31" value="numero" style="ellipse;whiteSpace=wrap;html=1;align=center;strokeColor=#EEEEEE;fontColor=#FFFFFF;fillColor=#56517E;labelBackgroundColor=none;" vertex="1" parent="1">
          <mxGeometry x="1030" y="130" width="100" height="40" as="geometry" />
        </mxCell>
        <mxCell id="L9QGzmagOvYEM6VZhwHZ-35" style="edgeStyle=none;rounded=0;orthogonalLoop=1;jettySize=auto;html=1;entryX=0;entryY=0;entryDx=0;entryDy=0;strokeColor=#182E3E;" edge="1" parent="1" source="L9QGzmagOvYEM6VZhwHZ-32" target="L9QGzmagOvYEM6VZhwHZ-25">
          <mxGeometry relative="1" as="geometry" />
        </mxCell>
        <mxCell id="L9QGzmagOvYEM6VZhwHZ-32" value="rua" style="ellipse;whiteSpace=wrap;html=1;align=center;strokeColor=#EEEEEE;fontColor=#FFFFFF;fillColor=#56517E;labelBackgroundColor=none;" vertex="1" parent="1">
          <mxGeometry x="830" y="130" width="100" height="40" as="geometry" />
        </mxCell>
        <mxCell id="L9QGzmagOvYEM6VZhwHZ-36" style="edgeStyle=none;rounded=0;orthogonalLoop=1;jettySize=auto;html=1;entryX=0.5;entryY=0;entryDx=0;entryDy=0;strokeColor=#182E3E;" edge="1" parent="1" source="L9QGzmagOvYEM6VZhwHZ-33" target="L9QGzmagOvYEM6VZhwHZ-25">
          <mxGeometry relative="1" as="geometry" />
        </mxCell>
        <mxCell id="L9QGzmagOvYEM6VZhwHZ-33" value="cep" style="ellipse;whiteSpace=wrap;html=1;align=center;strokeColor=#EEEEEE;fontColor=#FFFFFF;fillColor=#56517E;labelBackgroundColor=none;" vertex="1" parent="1">
          <mxGeometry x="930" y="100" width="100" height="40" as="geometry" />
        </mxCell>
      </root>
    </mxGraphModel>
  </diagram>
</mxfile>
